<svg alt="logo" width="68" height="32" viewBox="0 0 68 32" fill="none" xmlns="http://www.w3.org/2000/svg"><g clip-path="url(#clip0_2711_4939)"><path d="M43.1459 11.7627H35.9059L34.2369 15.0544C34.0096 15.5645 33.6312 16.1401 33.6312 16.1401H33.5554C33.5554 16.1401 33.2147 15.5645 32.9497 15.0544L31.2808 11.7627H24.0444L29.7315 20.8589L24.0679 29.9633H31.182L33.1012 26.1624C33.2905 25.8093 33.5554 25.1253 33.5554 25.1253H33.6312C33.6312 25.1253 33.8962 25.8093 34.0854 26.1624L36.0365 29.9633H43.1568L37.4932 20.8589L43.1459 11.7627Z" fill="white"></path><path d="M18.6381 16.0219C18.9307 15.6324 21.5633 12.2981 21.5633 8.96347C21.5633 3.20455 17.0085 0 11.4504 0C4.47148 0 1.42073 4.41689 1.42073 8.92009C1.42073 11.5616 2.54885 13.4233 4.13701 14.8525C3.21777 15.5886 0 18.4032 0 22.3872C0 27.3237 3.80297 32.0004 11.074 32.0004C18.3451 32.0004 22.1481 27.2808 22.1481 22.5607C22.1481 19.4429 20.6436 17.4511 18.6377 16.0219H18.6381ZM11.2833 6.66849C13.2474 6.66849 14.4174 7.79451 14.4174 9.52648C14.4174 11.4315 13.6233 12.8607 13.3726 13.337C10.74 12.168 8.56663 11.1288 8.56663 9.09316C8.56663 7.7507 9.40257 6.66806 11.2829 6.66806L11.2833 6.66849ZM11.074 25.3319C9.06811 25.3319 7.48037 23.7297 7.48037 21.7379C7.48037 20.0493 8.35817 18.7502 9.06853 17.9707C11.9937 19.3566 14.6681 20.3959 14.6681 22.1712C14.6681 24.2064 13.2893 25.3324 11.074 25.3324V25.3319Z" fill="white"></path><path d="M63.6122 16.0219C63.9048 15.6324 66.5373 12.2981 66.5373 8.96347C66.5373 3.20412 61.9822 0 56.4244 0C49.4455 0 46.3948 4.41689 46.3948 8.92009C46.3948 11.5616 47.5229 13.4233 49.1111 14.8525C48.1918 15.5886 44.9736 18.4032 44.9736 22.3872C44.9736 27.3237 48.7766 32.0004 56.0477 32.0004C63.3187 32.0004 67.1217 27.2808 67.1217 22.5607C67.1217 19.4429 65.6173 17.4511 63.6113 16.0219H63.6122ZM56.257 6.66849C58.221 6.66849 59.391 7.79451 59.391 9.52648C59.391 11.4315 58.5969 12.8607 58.3462 13.337C55.7136 12.168 53.5403 11.1288 53.5403 9.09316C53.5403 7.7507 54.3762 6.66806 56.2566 6.66806L56.257 6.66849ZM56.0481 25.3319C54.0422 25.3319 52.4544 23.7297 52.4544 21.7379C52.4544 20.0493 53.3322 18.7502 54.0426 17.9707C56.9678 19.3566 59.6422 20.3959 59.6422 22.1712C59.6422 24.2064 58.2633 25.3324 56.0485 25.3324L56.0481 25.3319Z" fill="white"></path></g><defs><clipPath id="clip0_2711_4939"><rect width="67.1219" height="32" fill="white"></rect></clipPath></defs></svg>