<?xml version="1.0" encoding="UTF-8" standalone="no"?>
<!-- Created with Inkscape (http://www.inkscape.org/) -->

<svg
   version="1.1"
   id="svg1"
   width="341.33334"
   height="341.33334"
   viewBox="0 0 341.33334 341.33334"
   sodipodi:docname="favicon.svg"
   inkscape:version="1.4 (e7c3feb1, 2024-10-09)"
   xmlns:inkscape="http://www.inkscape.org/namespaces/inkscape"
   xmlns:sodipodi="http://sodipodi.sourceforge.net/DTD/sodipodi-0.dtd"
   xmlns="http://www.w3.org/2000/svg"
   xmlns:svg="http://www.w3.org/2000/svg">
  <defs
     id="defs1" />
  <sodipodi:namedview
     id="namedview1"
     pagecolor="#ffffff"
     bordercolor="#000000"
     borderopacity="0.25"
     inkscape:showpageshadow="2"
     inkscape:pageopacity="0.0"
     inkscape:pagecheckerboard="0"
     inkscape:deskcolor="#d1d1d1"
     inkscape:zoom="2.9560546"
     inkscape:cx="202.29667"
     inkscape:cy="170.49753"
     inkscape:window-width="2560"
     inkscape:window-height="1293"
     inkscape:window-x="1920"
     inkscape:window-y="25"
     inkscape:window-maximized="1"
     inkscape:current-layer="g1" />
  <g
     inkscape:groupmode="layer"
     inkscape:label="Image"
     id="g1">
    <g
       id="g63"
       transform="translate(0.33829119)">
      <path
         style="fill:#c4da5e"
         d="M 0,170.66667 V 0 H 170.66667 341.33334 V 170.66667 341.33334 H 170.66667 0 Z m 109.633,49.32701 c 20.92066,-6.03971 29.36267,-33.17105 14.27223,-45.86881 l -3.90317,-3.28431 4.3323,-6.96922 4.33231,-6.96923 v -9.54874 -9.54875 l -3.27889,-4.78522 c -9.53981,-13.92245 -32.486147,-18.2537 -50.45577,-9.5238 -15.553289,7.55601 -20.502962,26.76119 -10.087273,39.13953 l 3.441267,4.08972 -5.299946,5.74976 c -16.208548,17.5842 -7.415302,42.05361 17.378759,48.36075 7.489465,1.90518 21.110263,1.51348 29.268183,-0.84168 z M 84.385668,197.00001 c -4.012737,-4.38417 -4.749912,-8.21389 -2.580498,-13.40603 2.669158,-6.38819 3.933771,-6.7958 11.162855,-3.59804 11.839185,5.23704 15.412075,11.62397 9.698645,17.3374 L 100,200.00001 h -6.434245 -6.434248 z m 9.607684,-38.09747 c -3.617186,-1.96306 -7.459755,-5.15006 -8.539042,-7.08223 l -1.962341,-3.51302 2.330573,-3.55691 2.330573,-3.5569 6.122612,0.40326 6.122613,0.40326 2.54751,3.42515 2.54751,3.42515 -1.57734,6.26418 c -0.86753,3.4453 -1.97528,6.51013 -2.46165,6.81072 -0.48637,0.3006 -3.843831,-1.0596 -7.461018,-3.02266 z m 173.133498,59.9813 c 20.13457,-8.94841 26.26835,-32.5402 11.59343,-44.59071 l -3.60439,-2.95979 4.72816,-8.63123 4.72816,-8.63123 -0.10187,-7.04784 -0.10188,-7.04784 -3.8953,-6.3005 -3.89531,-6.30051 -7.86131,-4.02043 -7.86132,-4.02042 h -11.42761 -11.4276 l -7.73466,3.79799 c -5.33212,2.61826 -8.85249,5.48715 -11.33334,9.23597 l -3.59867,5.43796 v 9.5345 9.53449 l 3.75563,4.92388 3.75562,4.92388 -5.24526,5.95893 c -15.61223,17.73643 -7.28404,41.12532 17.06734,47.93198 9.15037,2.55769 24.67541,1.73071 32.46018,-1.72908 z m -23.12684,-18.43101 c -9.26171,-3.66875 -10.5768,-13.02152 -3.21961,-22.89757 0.69108,-0.92767 13.31871,5.36598 16.203,8.07563 3.67052,3.44827 3.91082,9.14656 0.51531,12.21946 -2.69223,2.43643 -10.2429,3.89217 -13.4987,2.60248 z m 6,-40.67042 c -8.03693,-4.16875 -10,-6.38221 -10,-11.27548 0,-5.16313 2.77801,-7.17359 9.91234,-7.17359 5.6646,0 10.08766,3.81878 10.08766,8.70949 0,3.04405 -3.28102,12.70942 -4.2653,12.56491 -0.22075,-0.0324 -2.80137,-1.3038 -5.7347,-2.82533 z m -84.04782,49.64529 c 1.83174,-3.61477 3.83261,-6.88266 4.44636,-7.26199 0.61376,-0.37932 2.71865,2.57822 4.67754,6.57231 l 3.56161,7.26199 h 12.09317 12.09318 l -1.00632,-1.66667 c -0.55348,-0.91667 -4.77945,-7.51667 -9.39103,-14.66667 l -8.38471,-13 8.38471,-13 c 4.61158,-7.15 8.83755,-13.75 9.39103,-14.66667 l 1.00632,-1.66666 h -12.1407 -12.14071 l -2.27132,4.14602 c -1.24922,2.28031 -3.24794,5.40516 -4.44159,6.94411 l -2.17028,2.7981 -3.51885,-6.94412 -3.51885,-6.94411 H 150.56552 138.50929 L 139.51562,159 c 0.55348,0.91667 4.82849,7.5925 9.50002,14.83518 l 8.49371,13.1685 -7.19012,10.8315 c -3.95457,5.95732 -8.26318,12.48149 -9.57469,14.49816 l -2.38456,3.66667 h 12.13088 12.13089 z"
         id="path64" />
      <path
         style="fill:#272729"
         d="M 80.364817,220.83536 C 55.570756,214.52822 46.77751,190.05881 62.986058,172.47461 l 5.299946,-5.74976 -3.441267,-4.08972 C 54.429048,150.25679 59.378721,131.05161 74.93201,123.4956 c 17.969623,-8.7299 40.91596,-4.39865 50.45577,9.5238 l 3.27889,4.78522 v 9.54875 9.54874 l -4.33231,6.96923 -4.3323,6.96922 3.90317,3.28431 c 11.7013,9.84599 9.85637,29.74494 -3.72299,40.1551 -9.34765,7.16606 -26.388143,9.97155 -39.817423,6.55539 z m 22.301853,-23.50202 c 5.71343,-5.71343 2.14054,-12.10036 -9.698645,-17.3374 -7.229084,-3.19776 -8.493697,-2.79015 -11.162855,3.59804 -2.169414,5.19214 -1.432239,9.02186 2.580498,13.40603 l 2.745839,3 H 93.565755 100 Z m 1.24935,-42.21886 1.57734,-6.26418 -2.54751,-3.42515 -2.54751,-3.42515 -6.122613,-0.40326 -6.122612,-0.40326 -2.330573,3.5569 -2.330573,3.55691 1.962341,3.51302 c 1.909533,3.41849 14.229461,11.19918 16.00006,10.10489 0.48637,-0.30059 1.59412,-3.36542 2.46165,-6.81072 z m 130.75065,65.49844 c -24.35138,-6.80666 -32.67957,-30.19555 -17.06734,-47.93198 l 5.24526,-5.95893 -3.75562,-4.92388 -3.75563,-4.92388 v -9.53449 -9.5345 l 3.59867,-5.43796 c 2.48085,-3.74882 6.00122,-6.61771 11.33334,-9.23597 l 7.73466,-3.79799 h 11.4276 11.42761 l 7.86132,4.02042 7.86131,4.02043 3.89531,6.30051 3.8953,6.3005 0.10188,7.04784 0.10187,7.04784 -4.72816,8.63123 -4.72816,8.63123 3.60439,2.95979 c 11.04353,9.06854 10.27391,28.33045 -1.53054,38.30625 -10.32348,8.72426 -28.03756,12.0625 -42.52307,8.01354 z m 22.83204,-22.76257 c 3.39551,-3.0729 3.15521,-8.77119 -0.51531,-12.21946 -2.88429,-2.70965 -15.51192,-9.0033 -16.203,-8.07563 -7.35719,9.87605 -6.0421,19.22882 3.21961,22.89757 3.2558,1.28969 10.80647,-0.16605 13.4987,-2.60248 z m 0.56933,-39.80752 c 2.65687,-6.35878 2.4199,-10.88823 -0.7347,-14.04283 -2.93112,-2.93112 -10.45536,-3.58715 -14.75432,-1.28642 -3.33738,1.78611 -3.49016,9.40674 -0.24568,12.25445 1.92767,1.69193 12.00025,7.434 13.40137,7.63971 0.22075,0.0324 1.27075,-2.0218 2.33333,-4.56491 z m -117.3235,54.29051 c 1.31151,-2.01667 5.62012,-8.54084 9.57469,-14.49816 l 7.19012,-10.8315 -8.49371,-13.1685 C 144.34411,166.5925 140.0691,159.91667 139.51562,159 l -1.00633,-1.66666 h 12.05623 12.05623 l 3.51885,6.94411 3.51885,6.94412 2.17028,-2.7981 c 1.19365,-1.53895 3.19237,-4.6638 4.44159,-6.94411 l 2.27132,-4.14602 h 12.14071 12.1407 L 201.81773,159 c -0.55348,0.91667 -4.77945,7.51667 -9.39103,14.66667 l -8.38471,13 8.38471,13 c 4.61158,7.15 8.83755,13.75 9.39103,14.66667 l 1.00632,1.66667 H 190.73087 178.6377 l -3.56161,-7.26199 c -1.95889,-3.99409 -4.06378,-6.95163 -4.67754,-6.57231 -0.61375,0.37933 -2.61462,3.64722 -4.44636,7.26199 l -3.33044,6.57231 h -12.13089 -12.13088 z"
         id="path63" />
    </g>
  </g>
</svg>
